<?xml version="1.0" encoding="utf-8"?>
<!-- Generator: Adobe Illustrator 16.0.0, SVG Export Plug-In . SVG Version: 6.00 Build 0)  -->
<!DOCTYPE svg PUBLIC "-//W3C//DTD SVG 1.1//EN" "http://www.w3.org/Graphics/SVG/1.1/DTD/svg11.dtd">
<svg version="1.1" id="Layer_1" xmlns="http://www.w3.org/2000/svg" xmlns:xlink="http://www.w3.org/1999/xlink" x="0px" y="0px"
	 width="793px" height="140px" viewBox="0 0 793 140" enable-background="new 0 0 793 140" xml:space="preserve">
<polygon id="_x33__2_" fill="#8DC046" points="11.375,68.641 43.542,68.641 76.945,6.002 44.779,6.002 "/>
<polygon id="_x33__1_" fill="#0E67A5" points="50.946,130.998 88.03,130.998 128.031,67.299 93.217,67.299 "/>
<polygon id="_x33__3_" fill="#5F9733" points="86.667,130.998 49.583,130.998 11.375,68.641 43.542,68.641 "/>
<polygon id="_x33__5_" fill="#8DC046" points="135.709,130.997 172.792,130.997 211,68.64 178.834,68.64 "/>
<polygon id="_x33__4_" fill="#5F9733" points="211,68.64 178.834,68.64 145.43,6.001 177.596,6.001 "/>
<polygon id="_x33_" fill="#1D93D0" points="170.984,130.997 133.938,130.997 54.521,6.002 86.688,6.002 "/>
<polygon id="_x33__6_" fill="#0E67A5" points="93.217,67.299 128.031,67.299 169.168,6 134.392,6 "/>
<g>
	<path d="M308.506,68.547v30.602h-12.5V70.146c0-9.5-4.4-14.101-12.001-14.101c-8.201,0-13.901,5.4-13.901,16.001v27.102h-12.5
		V70.146c0-9.5-4.4-14.101-12.001-14.101c-8.3,0-13.901,5.4-13.901,16.001v27.102h-12.5V45.745h11.9v6.801
		c4-4.801,10.201-7.4,17.501-7.4c7.8,0,14.301,2.899,18.001,8.9c4.3-5.501,11.5-8.9,20.001-8.9
		C299.505,45.146,308.506,52.445,308.506,68.547z"/>
	<path d="M369.002,76.447H327.1c1.5,7.8,8,12.801,17.301,12.801c6,0,10.7-1.9,14.501-5.801l6.7,7.701
		c-4.8,5.7-12.301,8.7-21.501,8.7c-17.901,0-29.502-11.501-29.502-27.401c0-15.901,11.7-27.302,27.602-27.302
		c15.601,0,27.002,10.9,27.002,27.602C369.202,73.747,369.102,75.247,369.002,76.447z M326.999,68.146h30.302
		c-1-7.7-6.9-13.001-15.101-13.001C334.1,55.146,328.199,60.346,326.999,68.146z"/>
	<path d="M407.301,96.248c-3,2.4-7.501,3.601-12.001,3.601c-11.701,0-18.401-6.2-18.401-18.001V56.146h-8.801v-10h8.801V33.944
		h12.501v12.201H403.7v10h-14.301v25.401c0,5.201,2.601,8.001,7.4,8.001c2.601,0,5.101-0.7,7.001-2.2L407.301,96.248z"/>
	<path d="M456.301,67.847v31.302H444.5v-6.5c-3,4.6-8.801,7.2-16.801,7.2c-12.201,0-19.901-6.7-19.901-16.001
		c0-8.9,6-15.901,22.201-15.901H443.8v-0.8c0-7.301-4.4-11.601-13.301-11.601c-6,0-12.2,2-16.201,5.3l-4.9-9.101
		c5.701-4.399,14.001-6.6,22.602-6.6C447.4,45.146,456.301,52.445,456.301,67.847z M443.8,82.447v-6.2h-12.9
		c-8.501,0-10.801,3.2-10.801,7.101c0,4.5,3.8,7.4,10.2,7.4C436.399,90.748,441.7,87.947,443.8,82.447z"/>
	<path fill="#8DC046" d="M512.2,78.147c0,11.801-8.9,22.001-27.702,22.001c-9.9,0-19.801-3-26.302-8.101l5.601-10.101
		c5,4.2,12.601,6.9,20.501,6.9c9.301,0,14.802-4.1,14.802-10.601c0-6.3-4.601-10.4-15.201-10.4h-6.4v-8.9l15.9-18.901h-31.802v-10.9
		H509.3v8.7l-17.001,20.201C505.5,59.746,512.2,67.646,512.2,78.147z"/>
	<path d="M568.898,46.545v46.203c0,18.102-8.9,26.302-26.302,26.302c-9.601,0-19.001-2.9-24.501-8.101l3.6-5.4
		c5.001,4.5,12.602,7.2,20.701,7.2c13.301,0,19.401-6.101,19.401-19.101v-6.701c-4.4,6.701-11.9,10.201-20.501,10.201
		c-15.001,0-26.401-10.501-26.401-25.602s11.4-25.401,26.401-25.401c8.801,0,16.401,3.6,20.801,10.5V46.545H568.898z
		 M561.998,71.547c0-11.4-8.4-19.201-20.001-19.201s-19.901,7.801-19.901,19.201s8.301,19.301,19.901,19.301
		S561.998,82.947,561.998,71.547z"/>
	<path d="M609.297,46.146v6.9c-0.601,0-1.2-0.101-1.7-0.101c-11.001,0-17.701,7.001-17.701,19.401v26.802h-7.101V46.545h6.801
		v10.301C592.896,49.846,599.596,46.146,609.297,46.146z"/>
	<path d="M610.295,72.847c0-15.601,11.4-26.701,26.802-26.701c15.4,0,26.701,11.101,26.701,26.701
		c0,15.602-11.301,26.802-26.701,26.802C621.695,99.648,610.295,88.448,610.295,72.847z M656.598,72.847
		c0-12.301-8.301-20.501-19.501-20.501c-11.201,0-19.602,8.2-19.602,20.501s8.4,20.501,19.602,20.501
		C648.297,93.348,656.598,85.147,656.598,72.847z"/>
	<path d="M719.698,46.545v52.604h-6.801v-9.601c-3.7,6.4-10.501,10.101-18.901,10.101c-13.4,0-22.201-7.5-22.201-22.602V46.545
		h7.101v29.802c0,11.201,5.801,16.901,15.801,16.901c11.001,0,17.901-7.101,17.901-19.102V46.545H719.698z"/>
	<path d="M786.897,72.847c0,16.001-11.201,26.802-26.202,26.802c-8.4,0-15.601-3.601-20.001-10.4v29.302h-7.101V46.545h6.801v10.401
		c4.3-7.001,11.601-10.801,20.301-10.801C775.696,46.146,786.897,56.946,786.897,72.847z M779.797,72.847
		c0-12.2-8.501-20.501-19.602-20.501c-11.2,0-19.601,8.301-19.601,20.501c0,12.301,8.4,20.501,19.601,20.501
		C771.296,93.348,779.797,85.147,779.797,72.847z"/>
</g>
</svg>
